<svg xmlns="http://www.w3.org/2000/svg" viewBox="0 0 32 32" x="0px" y="0px"><g data-name="Layer 2" fill="#FFFFFF"><path d="M11,9a1,1,0,0,0-1,1v2H4V6H7A1,1,0,0,0,7,4H4A2,2,0,0,0,2,6v6a2,2,0,0,0,2,2h6a2,2,0,0,0,2-2V10A1,1,0,0,0,11,9Z"/><path d="M10,18H4a2,2,0,0,0-2,2v6a2,2,0,0,0,2,2h6a2,2,0,0,0,2-2V20A2,2,0,0,0,10,18ZM4,26V20h6v6Z"/><path d="M15,8H29a1,1,0,0,0,0-2H15a1,1,0,0,0,0,2Z"/><path d="M15,12h9a1,1,0,0,0,0-2H15a1,1,0,0,0,0,2Z"/><path d="M29,20H15a1,1,0,0,0,0,2H29a1,1,0,0,0,0-2Z"/><path d="M24,24H15a1,1,0,0,0,0,2h9a1,1,0,0,0,0-2Z"/><path d="M10.293,5.293,7,8.586l-.293-.293A1,1,0,0,0,5.293,9.707l1,1a1,1,0,0,0,1.414,0l4-4a1,1,0,1,0-1.414-1.414Z"/></g></svg>