<svg xmlns="http://www.w3.org/2000/svg" version="1.1" viewBox="-5.0 -10.0 110.0 135.0">
 <g>
  <path d="m93.336 30.707c2.2188-1.5977 2.2188-4.8984 0-6.4961l-18.152-13.051c-2.6445-1.9023-6.332-0.011718-6.332 3.2461v7.0586h-2.332c-7.0547 0-12.887 3.4883-17.008 8.8242-0.94922 1.2305-0.92969 2.9258-0.09375 4.2383l2.375 3.7188c1.5703 2.4648 5.1719 2.4648 6.7422 0l0.39844-0.625c1.6523-2.5898 4.5156-4.1562 7.5859-4.1562h2.332v7.0469c0 3.2617 3.6875 5.1523 6.332 3.2461z"/>
  <path d="m27.664 64.305 9.1133-14.27-9.1133-14.273c-1.6523-2.5898-4.5117-4.1602-7.5859-4.1602h-8.7773c-3.3164 0-6-2.6836-6-6 0-3.3125 2.6836-6 6-6h8.7773c7.1719 0 13.844 3.6602 17.703 9.7031l21.152 33.141c1.6523 2.5898 4.5156 4.1562 7.5859 4.1562h2.332v-7.0469c0-3.2578 3.6875-5.1523 6.332-3.2461l18.152 13.051c2.2188 1.5977 2.2188 4.8984 0 6.4961l-18.152 13.051c-2.6445 1.9023-6.332 0.011719-6.332-3.2461v-7.0586h-2.332c-7.168 0-13.844-3.6562-17.699-9.6992l-4.9258-7.7188-6.1133 9.5781c-3.8594 6.043-10.531 9.7031-17.703 9.7031h-8.7773c-3.3164 0-6-2.6875-6-6 0-3.3164 2.6836-6 6-6h8.7773c3.0742 0 5.9336-1.5703 7.5859-4.1602z"/>
 </g>
<text x="0.0" y="117.5" font-size="5.0" font-weight="bold" font-family="Arbeit Regular, Helvetica, Arial-Unicode, Arial, Sans-serif" fill="#000000">Created by Styfico</text><text x="0.0" y="122.5" font-size="5.0" font-weight="bold" font-family="Arbeit Regular, Helvetica, Arial-Unicode, Arial, Sans-serif" fill="#000000">from Noun Project</text></svg>