<svg xmlns:dc="http://purl.org/dc/elements/1.1/" xmlns:cc="http://creativecommons.org/ns#" xmlns:rdf="http://www.w3.org/1999/02/22-rdf-syntax-ns#" xmlns:svg="http://www.w3.org/2000/svg" xmlns="http://www.w3.org/2000/svg" xmlns:sodipodi="http://sodipodi.sourceforge.net/DTD/sodipodi-0.dtd" xmlns:inkscape="http://www.inkscape.org/namespaces/inkscape" viewBox="-0.31749999500000003 -0.6350000200000001 6.98499989 8.57250027" version="1.1" x="0px" y="0px"><g transform="translate(0,-290.64999)"><path style="color:#000000;font-style:normal;font-variant:normal;font-weight:normal;font-stretch:normal;font-size:medium;line-height:normal;font-family:sans-serif;font-variant-ligatures:normal;font-variant-position:normal;font-variant-caps:normal;font-variant-numeric:normal;font-variant-alternates:normal;font-feature-settings:normal;text-indent:0;text-align:start;text-decoration:none;text-decoration-line:none;text-decoration-style:solid;text-decoration-color:#000000;letter-spacing:normal;word-spacing:normal;text-transform:none;writing-mode:lr-tb;direction:ltr;text-orientation:mixed;dominant-baseline:auto;baseline-shift:baseline;text-anchor:start;white-space:normal;shape-padding:0;clip-rule:nonzero;display:inline;overflow:visible;visibility:visible;opacity:1;isolation:auto;mix-blend-mode:normal;color-interpolation:sRGB;color-interpolation-filters:linearRGB;solid-color:#000000;solid-opacity:1;vector-effect:none;fill:#000000;fill-opacity:1;fill-rule:nonzero;stroke:none;stroke-width:0.5291667;stroke-linecap:round;stroke-linejoin:round;stroke-miterlimit:4;stroke-dasharray:none;stroke-dashoffset:0;stroke-opacity:1;color-rendering:auto;image-rendering:auto;shape-rendering:auto;text-rendering:auto;enable-background:accumulate" d="m 1.8469231,291.17654 a 0.26460982,0.26460982 0 0 0 -0.181901,0.0801 l -1.05833341,1.05834 a 0.26460982,0.26460982 0 0 0 0,0.37517 l 1.05833341,1.05678 a 0.26460982,0.26460982 0 1 0 0.3731022,-0.3731 l -0.6061631,-0.60772 h 4.1237801 a 0.2646485,0.2646485 0 1 0 0,-0.52916 H 1.4340276 l 0.6040967,-0.60565 a 0.26460982,0.26460982 0 0 0 -0.1912012,-0.45476 z m 2.6484158,2.64532 a 0.26460982,0.26460982 0 0 0 -0.027387,10e-4 0.26460982,0.26460982 0 0 0 -0.1560618,0.4532 l 0.6071975,0.60717 H 0.79427299 a 0.26460982,0.26460982 0 0 0 -0.027387,0 0.26519877,0.26519877 0 0 0 0.027387,0.52969 H 4.9165027 l -0.6046126,0.60513 a 0.26460982,0.26460982 0 1 0 0.3731021,0.37517 l 1.0583334,-1.05885 a 0.26460982,0.26460982 0 0 0 0,-0.3731 l -1.0583334,-1.05828 a 0.26460982,0.26460982 0 0 0 -0.1896533,-0.0811 z"/></g><text x="0.0" y="7.4612502350000005" font-size="0.31750001000000005" font-weight="bold" font-family="Arbeit Regular, Helvetica, Arial-Unicode, Arial, Sans-serif" fill="#000000">Created by herra studio</text><text x="0.0" y="7.778750245000001" font-size="0.31750001000000005" font-weight="bold" font-family="Arbeit Regular, Helvetica, Arial-Unicode, Arial, Sans-serif" fill="#000000">from Noun Project</text></svg>