<svg xmlns="http://www.w3.org/2000/svg" xml:space="preserve" viewBox="0 0 32 40"><path d="M21.778 11.642a13.429 13.429 0 0 1-1.095 4.558 1.89 1.89 0 0 1-2.486.976 1.89 1.89 0 0 1-.977-2.485 9.693 9.693 0 0 0 .811-3.897c0-3.863-2.253-7.208-5.514-8.794 2.254 9.97-6.168 10.002-6.168 18.35 0 5.33 4.32 9.65 9.649 9.65 5.331 0 9.651-4.32 9.651-9.65.001-3.562-2.167-6.751-3.871-8.708z"/><text y="47" font-family="'Helvetica Neue', Helvetica, Arial-Unicode, Arial, Sans-serif" font-size="5" font-weight="bold">Created by David Khai</text><text y="52" font-family="'Helvetica Neue', Helvetica, Arial-Unicode, Arial, Sans-serif" font-size="5" font-weight="bold">from the Noun Project</text></svg>