<svg xmlns="http://www.w3.org/2000/svg" xmlns:xlink="http://www.w3.org/1999/xlink" version="1.1" x="0px" y="0px" viewBox="0 0 100 125" enable-background="new 0 0 100 100" xml:space="preserve"><path d="M78.642,59.155h-8.835c-7.438,0-10.075-2.891-14.465-9.156c4.432-6.333,6.946-9.154,14.465-9.154h8.835v8.071L94.318,33.24  L78.642,17.563v8.071H63.807c-7.258,0-12.081,4.193-17.639,11.485c-5.931-7.829-10.38-11.485-19.401-11.485H5.682v15.21h14.085  c0.653,0,1.267-0.006,1.847-0.011c6.496-0.064,8.328-0.076,15.238,9.164c-6.927,9.242-8.778,9.228-15.239,9.169  c-0.58-0.006-1.193-0.012-1.847-0.012H5.682v15.21h21.085c8.916,0,13.398-3.563,19.403-11.485  c5.265,6.92,10.142,11.485,17.637,11.485h14.835v8.07L94.318,66.76L78.642,51.084V59.155z M63.807,27.885h17.085v-4.889  L91.136,33.24L80.892,43.484v-4.889H69.807c-8.26,0-11.542,3.393-15.833,9.438c-0.668-0.965-1.376-1.987-2.146-3.074l-0.614-0.867  c-1.309-1.848-2.507-3.533-3.646-5.091C52.868,31.954,57.309,27.885,63.807,27.885z M26.767,72.115H7.932v-10.71h11.835  c0.646,0,1.252,0.006,1.825,0.012c7.263,0.059,9.667-0.312,16.653-9.528c1.161,1.597,2.26,3.148,3.314,4.635  c1.11,1.567,2.171,3.058,3.21,4.477C38.919,68.819,34.975,72.115,26.767,72.115z M80.892,56.516L91.136,66.76L80.892,77.004v-4.889  H63.807c-8.444,0-13.464-7.085-20.413-16.892c-1.083-1.528-2.213-3.123-3.41-4.768C32.023,39.51,29.511,38.578,22.651,38.578  c-0.341,0-0.694,0.002-1.059,0.006c-0.573,0.005-1.18,0.011-1.826,0.011H7.932v-10.71h18.835c10.209,0,13.84,5.125,22.61,17.508  l0.615,0.868c0.798,1.125,1.53,2.184,2.218,3.178c5.341,7.716,8.283,11.967,17.598,11.967h11.085V56.516z"/><text x="0" y="115" fill="#000000" font-size="5px" font-weight="bold" font-family="'Helvetica Neue', Helvetica, Arial-Unicode, Arial, Sans-serif">Created by emilegraphics</text><text x="0" y="120" fill="#000000" font-size="5px" font-weight="bold" font-family="'Helvetica Neue', Helvetica, Arial-Unicode, Arial, Sans-serif">from the Noun Project</text></svg>