<svg xmlns="http://www.w3.org/2000/svg" version="1.1" viewBox="-5.0 -10.0 110.0 135.0">
 <g>
  <path d="m17.41 36.41 6.5898-6.5898v35.172c0 6.6211 5.3789 12 12 12h20c1.1016 0 2-0.89844 2-2 0-1.1016-0.89844-2-2-2h-20c-4.4102 0-8-3.5898-8-8v-35.164l6.5898 6.5898c0.39062 0.39062 0.89844 0.58984 1.4102 0.58984s1.0195-0.19922 1.4102-0.58984c0.78125-0.78125 0.78125-2.0508 0-2.8281l-10-10c-0.089844-0.089844-0.19922-0.17969-0.30859-0.25-0.050781-0.03125-0.10937-0.058594-0.16016-0.089844-0.058594-0.03125-0.12109-0.070312-0.19141-0.10156s-0.14062-0.039063-0.21094-0.058594c-0.058593-0.019532-0.10937-0.039063-0.17187-0.050782-0.26172-0.050781-0.53125-0.050781-0.78125 0-0.058594 0.011719-0.10938 0.03125-0.17188 0.050782-0.070312 0.019531-0.14062 0.039062-0.19922 0.058594-0.070313 0.03125-0.12891 0.058593-0.19141 0.10156-0.050782 0.03125-0.10938 0.050781-0.16016 0.089844-0.10938 0.070312-0.21094 0.16016-0.30859 0.25l-10 10c-0.78125 0.78125-0.78125 2.0508 0 2.8281 0.78125 0.78125 2.0508 0.78125 2.8281 0z"/>
  <path d="m82.59 63.59-6.5898 6.5898v-35.172c0-6.6211-5.3789-12-12-12h-20c-1.1016 0-2 0.89844-2 2 0 1.1016 0.89844 2 2 2h20c4.4102 0 8 3.5898 8 8v35.172l-6.5898-6.5898c-0.78125-0.78125-2.0508-0.78125-2.8281 0-0.78125 0.78125-0.78125 2.0508 0 2.8281l10 10c0.089844 0.089843 0.19922 0.17969 0.30859 0.25 0.050781 0.03125 0.10156 0.058593 0.14844 0.078125 0.058594 0.03125 0.12109 0.070312 0.19141 0.10156 0.070312 0.03125 0.12891 0.039063 0.19922 0.058594 0.058593 0.019531 0.10937 0.039062 0.17187 0.050781 0.12891 0.03125 0.26172 0.039063 0.39063 0.039063 0.12891 0 0.26172-0.011719 0.39062-0.039063 0.058594-0.011719 0.10938-0.03125 0.17188-0.050781 0.070312-0.019531 0.14062-0.039062 0.19922-0.058594 0.070313-0.03125 0.12891-0.070312 0.19141-0.10156 0.050782-0.03125 0.10938-0.050782 0.14844-0.078125 0.10938-0.070313 0.21094-0.16016 0.30859-0.25l10-10c0.78125-0.78125 0.78125-2.0508 0-2.8281-0.78125-0.78125-2.0508-0.78125-2.8281 0z"/>
 </g>
<text x="0.0" y="117.5" font-size="5.0" font-weight="bold" font-family="Arbeit Regular, Helvetica, Arial-Unicode, Arial, Sans-serif" fill="#000000">Created by tity</text><text x="0.0" y="122.5" font-size="5.0" font-weight="bold" font-family="Arbeit Regular, Helvetica, Arial-Unicode, Arial, Sans-serif" fill="#000000">from Noun Project</text></svg>