<svg xmlns="http://www.w3.org/2000/svg" version="1.1" viewBox="-5.0 -10.0 110.0 135.0">
 <path d="m94.246 65.738-14.754-9.8086c-2.2734-1.5977-5.6641 0.22266-5.582 2.9961v3.3164h-2.7344c-0.65234 0-1.2695-0.25781-1.7383-0.72266l-11.523-11.523 11.516-11.496c0.92187-1.1172 3.2422-0.64062 4.4766-0.73828 0.050781 2.1836-0.53125 5.3203 1.8984 6.4766 1.1719 0.62891 2.5859 0.55859 3.6914-0.17578l14.742-9.8047c2.1094-1.3164 2.1172-4.6719 0-5.9883l-14.742-9.8047c-2.2695-1.6094-5.6758 0.20703-5.5859 2.9922v3.3086c-4.9883-0.32422-10.113 0.80469-13.668 4.5391l-11.527 11.508-10.375-10.387c-2.9414-2.918-6.8359-4.5234-10.957-4.5234l-16.781-0.007813c-8.5664 0.22656-8.5898 12.785 0 13.012h16.785c0.66406 0 1.293 0.25781 1.7578 0.72266l10.371 10.371-10.371 10.371c-0.48047 0.48047-1.1133 0.74609-1.7773 0.74609h-6.3828c-1.1523 0-2.0859 0.93359-2.0859 2.0859s0.93359 2.0859 2.0859 2.0859h6.3828c1.7812 0 3.4609-0.69922 4.7266-1.9648l10.371-10.371 3.3047 3.3047-10.402 10.383c-2.0898 2.125-4.9258 3.2969-7.9805 3.2969h-16.785c-0.61719 0-1.2188-0.25-1.6523-0.68359-1.457-1.3906-0.37109-4.0234 1.6523-3.9688h2.043c1.1523 0 2.0859-0.93359 2.0859-2.0859 0-1.1523-0.93359-2.0859-2.0859-2.0859h-2.043c-8.5508 0.21484-8.5938 12.766 0 12.992h16.785c4.1797 0 8.0703-1.6133 10.941-4.5312l10.391-10.371 11.523 11.523c3.5742 3.7227 8.6875 4.8555 13.668 4.5234v3.2969c-0.089844 2.793 3.3203 4.5977 5.5977 2.9844l1.9375-1.293c0.96094-0.64062 1.2188-1.9336 0.57813-2.8906-0.63672-0.95703-1.9375-1.2227-2.8906-0.57812l-1.0547 0.70312v-4.3047c0-1.1523-0.93359-2.0859-2.0859-2.0859h-4.8164c-3.0039 0-5.8438-1.1758-7.9922-3.3086l-12.953-12.957c-3.9727-3.9727-14.055-14.055-18.137-18.137-1.2578-1.2539-2.9258-1.9453-4.707-1.9453l-16.785 0.003906c-3.0352-0.027343-3.0938-4.6211 0-4.6719h16.785c3.0156 0 5.8633 1.1758 8.0117 3.3086l18.078 18.098c0.058594 0.058594 0.12109 0.11328 0.1875 0.16797l12.824 12.828c1.2539 1.2539 2.918 1.9453 4.6875 1.9453h4.8164c1.1523 0 2.0859-0.93359 2.0859-2.0859v-4.3281l13.145 8.7383-5.125 3.4023c-2.2656 1.5508 0.003906 4.9531 2.3086 3.4727l5.8477-3.8867c2.0977-1.3359 2.1055-4.6523-0.011718-5.9883zm-42.586-21.98 11.527-11.508c2.1406-2.1406 4.9805-3.3164 7.9961-3.3164h4.8125c1.1523 0 2.0859-0.93359 2.0859-2.0859v-4.3203l13.133 8.7344-13.133 8.7344v-4.3203c0-1.1523-0.93359-2.0859-2.0859-2.0859h-4.7812c-1.7852 0-3.4648 0.69531-4.7266 1.957l-11.531 11.512z"/>
<text x="0.0" y="117.5" font-size="5.0" font-weight="bold" font-family="Arbeit Regular, Helvetica, Arial-Unicode, Arial, Sans-serif" fill="#000000">Created by Selot Lo</text><text x="0.0" y="122.5" font-size="5.0" font-weight="bold" font-family="Arbeit Regular, Helvetica, Arial-Unicode, Arial, Sans-serif" fill="#000000">from Noun Project</text></svg>