<svg xmlns="http://www.w3.org/2000/svg" viewBox="0 0 100 125" fill="none" x="0px" y="0px"><path fill-rule="evenodd" clip-rule="evenodd" d="M51.8236 5.21171C55.4885 6.07066 58.0836 9.37493 58.0836 13.1825V35.3753H70.9164C73.7057 35.3753 76.2979 36.8307 77.7745 39.2259C79.251 41.621 79.4033 44.6174 78.1772 47.1532L57.2608 90.4138C55.6073 93.8338 51.8413 95.6472 48.1764 94.7883C44.5115 93.9293 41.9164 90.6251 41.9164 86.8175V64.6247H29.0836C26.2943 64.6247 23.7021 63.1693 22.2255 60.7741C20.749 58.379 20.5967 55.3826 21.8228 52.8468L42.7392 9.5862C44.3927 6.1662 48.1587 4.35276 51.8236 5.21171Z" fill="black"/><text x="0" y="115" fill="#000000" font-size="5px" font-weight="bold" font-family="'Helvetica Neue', Helvetica, Arial-Unicode, Arial, Sans-serif">Created by Dave Robson</text><text x="0" y="120" fill="#000000" font-size="5px" font-weight="bold" font-family="'Helvetica Neue', Helvetica, Arial-Unicode, Arial, Sans-serif">from the Noun Project</text></svg>