<svg xmlns="http://www.w3.org/2000/svg" xmlns:xlink="http://www.w3.org/1999/xlink" viewBox="0 0 30 30" version="1.1" x="0px" y="0px"><g stroke="none" stroke-width="1" fill="none" fill-rule="evenodd"><path d="M15,7 C10.6,7 7,10.6 7,15 C7,19.4 10.6,23 15,23 C18.7,23 21.8,20.4 23,17 L21,17 C19.8,19.3 17.6,21 15,21 C11.7,21 9,18.3 9,15 C9,11.7 11.7,9 15,9 C16.7,9 17.7426232,9.92113057 18.88588,11.1142058 L16,14 L23,14 L23,7 L20.3585421,9.60697272 C18.8567438,8.21303878 17.2,7 15,7 Z" fill="#ffffff"/></g></svg>