<svg xmlns="http://www.w3.org/2000/svg" xmlns:xlink="http://www.w3.org/1999/xlink" version="1.1" x="0px" y="0px" viewBox="0 0 32 40" enable-background="new 0 0 32 32" xml:space="preserve"><path d="M21.778,11.642c-0.097,1.575-0.462,3.105-1.095,4.558c-0.311,0.71-1.004,1.134-1.732,1.134c-0.252,0-0.508-0.05-0.754-0.158  c-0.955-0.417-1.393-1.529-0.977-2.485c0.538-1.234,0.811-2.545,0.811-3.897c0-3.863-2.253-7.208-5.514-8.794  c2.254,9.97-6.168,10.002-6.168,18.35c0,5.33,4.32,9.65,9.649,9.65c5.331,0,9.651-4.32,9.651-9.65  C25.65,16.788,23.482,13.599,21.778,11.642z"/><text x="0" y="47" fill="#000000" font-size="5px" font-weight="bold" font-family="'Helvetica Neue', Helvetica, Arial-Unicode, Arial, Sans-serif">Created by David Khai</text><text x="0" y="52" fill="#000000" font-size="5px" font-weight="bold" font-family="'Helvetica Neue', Helvetica, Arial-Unicode, Arial, Sans-serif">from the Noun Project</text></svg>