<svg xmlns="http://www.w3.org/2000/svg" xmlns:xlink="http://www.w3.org/1999/xlink" xml:space="preserve" version="1.1" style="shape-rendering:geometricPrecision;text-rendering:geometricPrecision;image-rendering:optimizeQuality;" height="28px" width="28px" viewBox="0 0 333.33 416.66249999999997" x="0px" y="0px" fill-rule="evenodd" clip-rule="evenodd"><defs><style type="text/css">   
  </style></defs><g><path class="fil0" d="M211.83 11.89c0,0 -19.09,32.84 -2.55,66.44 16.55,33.6 31.06,60.08 27.74,88.33 0,0 8.4,-45.82 50.91,-57.79 0,0 -15.78,29.78 -7.13,71.79 8.65,42 -10.95,120.41 -91.39,140.78 0,0 71.28,-37.93 20.11,-99.54 0,0 -1.27,30.3 -27.62,39.33 0,0 41.49,-70.64 -19.6,-136.32 0,0 14,45.57 -32.84,84.52 -46.84,38.95 -23.67,101.57 3.31,110.22 0,0 -147.14,-65.68 -59.57,-201.1 0,0 3.06,30.8 25.46,42.77 0,0 -3.31,-132.12 113.16,-149.43z" fill="#d1d5db"/></g></svg>