<svg xmlns="http://www.w3.org/2000/svg" xmlns:xlink="http://www.w3.org/1999/xlink" version="1.1" x="0px" y="0px" viewBox="0 0 96 120" enable-background="new 0 0 96 96" xml:space="preserve"><g><path d="M88.092,45.298h-6.902c-0.826,0-1.5,0.673-1.5,1.5v3.619c0,4.45-3.619,8.069-8.069,8.069H30.705V52.79   c0-0.521-0.263-0.995-0.712-1.276c-0.434-0.268-1.011-0.289-1.458-0.064L7.233,62.1c-0.508,0.258-0.824,0.771-0.824,1.34   s0.315,1.082,0.828,1.342l21.299,10.646c0.206,0.104,0.438,0.157,0.669,0.157c0.279,0,0.551-0.077,0.788-0.224   c0.439-0.271,0.712-0.758,0.712-1.275v-5.695h40.914c9.91,0,17.973-8.063,17.973-17.975v-3.619   C89.592,45.97,88.919,45.298,88.092,45.298z"/><path d="M7.908,50.7h6.901c0.827,0,1.5-0.673,1.5-1.5v-3.619c0-4.45,3.621-8.07,8.071-8.07h40.914v5.697   c0,0.519,0.263,0.994,0.711,1.276c0.435,0.269,1.017,0.29,1.458,0.065l21.303-10.651c0.51-0.258,0.824-0.771,0.824-1.34   c0-0.567-0.314-1.08-0.828-1.342L67.463,20.568c-0.455-0.226-1.023-0.2-1.458,0.067c-0.438,0.271-0.709,0.76-0.709,1.275v5.696   H24.381c-9.91,0-17.973,8.063-17.973,17.974v3.62C6.408,50.027,7.081,50.7,7.908,50.7z"/></g><text x="0" y="111" fill="#000000" font-size="5px" font-weight="bold" font-family="'Helvetica Neue', Helvetica, Arial-Unicode, Arial, Sans-serif">Created by studiographic</text><text x="0" y="116" fill="#000000" font-size="5px" font-weight="bold" font-family="'Helvetica Neue', Helvetica, Arial-Unicode, Arial, Sans-serif">from the Noun Project</text></svg>