<svg version="1.1" xmlns="http://www.w3.org/2000/svg" xmlns:xlink="http://www.w3.org/1999/xlink" x="0px" y="0px" height="20px" width="20px" viewBox="7.126 0.26 87.505 125" enable-background="new 7.126 0.26 87.505 100" xml:space="preserve" transform="matrix(-1,0,0,1,0,0)"><g><path d="M88.36,45.986c-6.019-3.867-15.44-3.758-23.443-2.663c21.985-7.353,22.706-20.044,22.419-22.274
		C85.166,3.956,69.321,9.411,69.321,9.411C63.539-3.93,48.299-1.452,44.263,8.94c-2.966,7.629,0.054,18.591,3.249,26.688
		c-10.662-18.733-22.658-17.42-24.753-16.785c-16.505,4.967-8.5,19.691-8.5,19.691c-12.213,7.907-7.244,22.528,3.67,24.791
		c9.146,1.901,21.274-4.601,28.75-9.47c-3.4,5.79-5.41,8.378-12.007,16.404C20.698,83.775,14.572,92.707,14.572,92.707
		c0.19,3.862,8.753,7.908,10.841,7.527c1.694-0.319,18.731-25.787,25.175-40.533c2.906,22.718,15.083,25.919,17.31,26.08
		C85.092,87.072,82.899,70.45,82.899,70.45C97.131,67.441,97.738,52.018,88.36,45.986" fill="#d1d5db"></path></g></svg>